<?xml version="1.0" encoding="UTF-8"?>
<!DOCTYPE svg PUBLIC "-//W3C//DTD SVG 1.1//EN" "http://www.w3.org/Graphics/SVG/1.1/DTD/svg11.dtd">
<!-- Creator: CorelDRAW X8 -->
<svg xmlns="http://www.w3.org/2000/svg" xml:space="preserve" width="22mm" height="22mm" version="1.1" style="shape-rendering:geometricPrecision; text-rendering:geometricPrecision; image-rendering:optimizeQuality; fill-rule:evenodd; clip-rule:evenodd"
viewBox="0 0 2200 2200"
 xmlns:xlink="http://www.w3.org/1999/xlink">
 <defs>
  <style type="text/css">
   <![CDATA[
    .str0 {stroke:#0B7C8A;stroke-width:9.5}
    .fil2 {fill:none;fill-rule:nonzero}
    .fil1 {fill:#E42424;fill-rule:nonzero}
    .fil0 {fill:#E42424;fill-rule:nonzero}
   ]]>
  </style>
 </defs>
 <g id="Слой_x0020_1">
  <metadata id="CorelCorpID_0Corel-Layer"/>
  <polygon class="fil0" points="736,1871 744,1869 743,1870 "/>
  <path class="fil0" d="M706 2082c8,-1 5,0 7,0 -8,0 2,-1 -7,0z"/>
  <polygon class="fil0" points="1023,2078 1021,2078 1022,2077 "/>
  <path class="fil0" d="M479 2165c-11,0 6,1 -7,0 2,0 4,-1 7,0z"/>
  <path class="fil0" d="M474 2133c-1,-6 -1,-12 -1,-18 29,-1 65,1 96,-1 4,0 -2,2 8,1 36,-2 92,-1 135,2l-2 0c8,0 18,-1 27,-1 0,0 -3,0 -1,1 2,-1 16,-1 19,-1 4,0 4,1 8,1l5 -1c14,-3 34,0 53,-1 -1,0 -3,0 -1,1 30,-2 68,-2 102,-3 -1,1 -2,2 0,2 2,-1 12,-2 21,-2 4,2 16,-1 27,0l-1 0c8,-1 12,1 18,-1l5 1c3,-2 11,1 18,0l0 0c6,-1 9,0 15,0l0 0c14,0 22,1 21,-1 5,2 -13,1 -5,3 44,-2 89,-2 134,-2 5,1 8,1 9,2 5,-1 17,-1 21,-1 -2,0 3,0 5,1 8,0 9,-2 18,-1 -4,0 -5,0 -4,1 8,-1 18,-1 27,-1 -1,0 -4,0 -3,0 10,-1 18,1 26,0l-3 1c14,1 4,-2 16,-1 -3,0 -2,0 -2,1 11,-2 29,-2 40,-2 -1,0 -1,0 -1,0 13,0 25,1 39,0 4,0 -2,2 11,2 -1,-2 22,-1 14,-3 11,0 28,1 36,0 -5,1 5,3 -4,3l7 1c-1,0 -7,0 -5,0 4,0 18,0 22,0 8,-1 16,-3 30,-3 -7,0 3,2 -1,2l19 -4c5,0 1,2 8,1 -1,0 2,0 4,-1 2,0 19,0 21,2 2,0 -7,0 -2,1 8,0 8,-1 17,-1l0 0c5,0 16,-1 10,-2 -4,0 2,2 -4,1 4,-1 14,-1 22,-1 -3,0 -2,0 -4,1 12,-1 24,-2 36,-2 0,-1 -4,1 -6,1 16,1 33,-2 47,0 -3,0 -2,-2 -1,-1 7,0 7,1 12,1 1,0 6,-1 12,-1 2,0 1,0 -4,1 8,-1 37,-2 54,-1 -1,-1 10,-2 14,-2l-2 1c4,1 13,0 14,1 8,-1 -32,1 -21,0 3,1 16,-1 13,0 8,0 16,-1 23,0 -2,0 -6,1 0,1 11,0 3,0 12,-1l6 0c0,-1 10,0 6,-1 1,1 16,-1 15,1l-2 1c5,0 8,-1 12,-2 0,0 1,1 1,1 1,-2 12,0 17,-1 3,0 5,0 9,0 5,0 9,0 13,0 0,9 0,18 0,19 0,8 1,15 0,23 0,-1 0,-4 0,-4 -1,6 0,6 0,13 0,-1 -1,5 -1,11 -4,0 -9,-1 -12,-1 -9,1 -6,2 -7,3 -7,-2 -21,1 -30,-1 3,0 11,-1 5,-1 -7,-2 -14,1 -25,0l2 2c-5,-1 -16,1 -15,-1 -4,1 -13,0 -12,1 -19,-1 -45,1 -57,-2 -2,0 -9,0 -8,1 5,1 7,-1 8,0 -2,0 -3,0 -3,1 -6,-1 -10,-1 -5,-2 -13,-1 -13,3 -29,2 1,-1 -1,-1 -5,-1l-10 1c-10,0 -6,-1 -6,-2 -5,0 -12,0 -15,1l-7 -2c5,1 -4,1 -7,1l3 0c-1,-1 -8,0 -11,0 1,0 7,1 11,1 -3,0 -7,0 -11,1 1,-1 -9,-1 -14,-1 -5,0 -6,1 -7,1 0,-1 -9,0 -5,-1 2,0 4,1 7,0 -3,0 -3,-1 -10,-1 -5,1 2,3 -8,2 2,0 3,-1 5,-1l-10 -1 0 1c-1,0 0,0 -1,0 -3,1 -14,0 -17,1 -4,0 -9,0 -14,0l1 -1c-6,0 -13,0 -18,1l1 0c-3,0 -11,0 -14,0 -8,0 -3,-4 -11,-2 -8,0 -13,2 -9,2 -14,0 -30,1 -43,0 -2,0 -1,0 -5,1 -20,-1 -43,1 -59,-1 6,-1 0,-1 0,-2 -5,1 -6,-1 -8,1 1,1 0,1 6,2 -12,0 -31,0 -38,-1 4,1 1,1 -1,1 0,-1 -9,-1 -15,-1l-1 1 -5 -1c-2,0 -3,2 -9,1 -1,0 -1,-1 -2,-1 -7,1 -17,2 -25,1l-6 -1c-3,0 -9,1 -3,1 -13,0 -22,-1 -26,-2 -22,3 -55,3 -81,3l1 -1c-7,0 -4,2 -9,1 3,-1 -5,-1 0,-2 -10,-1 -13,1 -19,1 -1,1 5,0 4,1 -1,0 -14,-1 -16,1 -2,-1 0,-2 1,-3l-6 1c-7,-1 17,-3 9,-5l-5 0c-6,-1 15,-1 0,-2 -6,1 -11,3 -5,4 -13,0 -6,3 -20,3 -4,-1 11,0 8,-2 -6,-1 -13,1 -19,1 7,0 1,2 -3,2 -7,-1 5,-1 -5,-2 -2,1 -11,2 -3,2 -4,2 -10,0 -16,1 -3,-1 11,-3 0,-3 1,1 -14,1 -8,3 -4,0 -5,-1 -2,-2 -6,-1 -15,2 -17,0l-2 1c-2,0 -4,-1 -7,-1 -6,0 -18,1 -17,0 -2,0 -14,0 -10,1 8,1 9,-1 14,1 -6,-2 -11,0 -16,1l-1 -1c-2,0 -8,0 -10,1 2,-1 1,-1 -1,-1l-3 1c-11,0 -2,-2 -13,-2l8 -1c-2,0 -5,-1 -10,0 -2,1 -6,2 -7,3 -6,0 -3,-1 -9,0l8 -2c1,0 -5,-1 -13,-1 -5,0 -13,2 -5,2 -4,0 -9,0 -6,-1 -9,0 1,1 -7,2 -3,-1 -13,-2 -19,-3l8 -2 -5 0c7,-1 -3,-1 1,-2 -4,-1 -8,0 -12,0 11,3 -12,3 -9,6 -14,0 -9,-6 -24,-2 2,0 -5,2 4,1 -9,0 -6,2 -16,2 7,-1 -9,-3 2,-4 0,1 7,1 9,0 -4,0 0,-2 -9,-2 -6,1 -13,1 -12,2 0,1 8,0 5,1 -11,0 -13,-2 -18,1 7,-1 9,1 9,1l-9 1 2 -1c-13,0 -4,2 -17,1l-6 -1c3,-2 19,0 17,-2 -9,0 -11,1 -19,1 1,-1 4,-1 6,-1 -3,0 -6,-3 -18,-1 -7,1 -2,1 -2,2 -14,0 -18,1 -26,1 2,-2 -16,0 -6,-2 4,1 24,1 29,-1 -5,-2 10,1 13,-1 -11,0 -10,-2 -12,-4 -3,0 -6,1 -8,1 -1,1 3,1 3,2 -12,0 -23,1 -30,2 -4,-1 -3,-2 2,-2 -14,0 -30,0 -43,0 9,2 -15,0 -9,2 7,0 13,2 9,2 -4,0 0,0 -2,-1 -5,1 -9,-1 -14,0 13,0 2,-2 5,-4 -10,1 0,-1 -9,-1 -10,1 -21,2 -32,2 -13,-1 -33,0 -44,0 -7,-1 -2,-2 -9,-3 -8,0 6,2 -6,1l1 0c-3,1 -21,-1 -24,1l3 -1c-2,-1 -4,0 -6,0 0,-1 -2,-1 1,-1 -7,-2 -15,0 -22,0l5 1c-14,1 -23,0 -35,0l0 -1 -8 1c2,-1 -5,-2 -9,-1l20 -3c6,1 -6,1 -3,2 3,1 15,1 17,0 -4,0 -5,0 -8,1 -2,-2 5,-2 9,-3 -3,0 -6,0 -7,0 5,0 10,-1 18,-1 -6,1 2,1 0,2 1,-2 9,-2 18,-2 7,2 18,-1 29,0 -4,1 -10,2 -17,3 7,0 8,0 15,0 3,-1 6,-2 15,-3l1 1c8,0 8,-2 18,-1 19,0 37,0 51,0l0 1c8,-2 26,-1 36,-2 18,1 38,0 47,1 31,-1 58,-1 90,-1l-5 2c6,-2 4,0 9,0 -6,-1 8,-1 12,-2 15,1 33,0 46,-1l0 1c13,-2 28,-1 44,0 2,0 5,1 10,1 8,-2 13,-1 25,-2 10,0 25,0 34,1 35,-3 71,-1 107,-3l3 2c35,-3 78,-1 108,-2l-3 2c9,1 21,0 19,-2 9,1 24,-1 30,1 9,0 11,-1 19,-1 20,0 27,0 45,0l-5 0c-2,0 -2,1 3,1 7,0 25,1 18,-2 19,2 45,-1 64,1 -1,-1 3,-1 5,-1 17,0 35,1 49,0 3,0 -4,1 3,1 4,0 0,-1 5,-1 27,-1 56,1 81,1 44,-1 91,-1 134,-1l-1 1c14,-2 34,1 45,-1 3,0 13,0 11,1 11,-1 31,1 48,-1 -2,0 -2,0 -4,1 10,0 24,0 24,0l0 -3c0,-2 0,-5 0,-8 0,2 0,5 1,6 1,-7 -2,-16 0,-20 0,-4 -1,-3 -1,0 0,-5 0,-9 0,-14 -14,0 -28,0 -42,1 -17,0 -34,0 -50,0 -29,-1 -2,-3 -25,-2 -2,0 -1,1 -1,1 -9,0 -14,-3 -20,-2 2,2 -4,1 -4,2 -18,-1 -21,-2 -35,-1l1 -1c-16,2 -35,1 -49,4 -89,0 -175,1 -262,2 -87,-1 -171,0 -259,-1 -20,-2 -22,-2 -44,-1 1,0 2,-1 1,-1 -2,2 -16,0 -18,2 -33,0 -63,0 -96,0 5,0 8,-1 2,-1l-7 1 -1 -1c-4,0 -9,1 -4,2 -84,1 -166,-2 -248,-2 -20,0 -48,0 -69,1 -22,-1 -44,-2 -65,-2 -20,-1 -39,-1 -59,-1 0,15 1,30 1,46 0,0 -4,-8 -5,-34z"/>
  <path class="fil0" d="M491 2164c3,1 10,2 4,3 -1,-1 -4,-2 -4,-3z"/>
  <path class="fil0" d="M686 2172c0,0 3,1 3,1 -2,0 -4,1 -6,0 2,0 2,0 3,-1z"/>
  <path class="fil0" d="M736 2173c-1,1 -12,1 -18,1l18 -1z"/>
  <path class="fil0" d="M782 2176c4,0 3,1 -2,1 -1,-1 1,-1 2,-1z"/>
  <path class="fil0" d="M785 2174c4,0 6,1 8,1 0,-1 -9,0 -8,-1z"/>
  <path class="fil0" d="M886 2176c3,0 8,0 10,0 -2,0 -12,1 -10,0z"/>
  <path class="fil0" d="M933 2175c1,0 2,0 4,0 3,0 0,1 -3,1l-1 -1z"/>
  <polygon class="fil0" points="1785,2172 1780,2173 1780,2172 "/>
  <path class="fil0" d="M1573 2109c-5,1 -4,0 -4,0 4,-1 -2,0 4,0z"/>
  <g id="_2385070524944">
   <path class="fil0" d="M1257 1821c-17,0 9,1 -11,0 2,0 5,-1 11,0z"/>
   <path class="fil0" d="M1300 1829c53,0 122,13 179,23 7,1 -2,2 13,5 56,8 141,35 201,68l-4 -2c12,6 27,12 39,19 0,1 -4,-1 -2,1 4,0 22,12 27,15 4,4 3,4 8,8l7 4c20,11 41,35 58,60 -1,-1 -3,-4 -2,-2 6,10 12,22 16,35 1,3 1,6 2,10l1 2 0 1c0,1 -1,0 -1,0l-5 1c-7,0 -14,0 -21,0 -28,0 -57,0 -84,0 3,0 5,-1 1,-1 -2,1 -19,1 -33,2 -7,-2 -25,1 -42,0l1 0c-12,1 -18,-1 -28,1l-8 -1c-6,2 -18,-1 -29,0l1 0c-10,0 -15,-1 -24,0l-1 0c-21,0 -34,-1 -33,0 -7,-1 20,0 9,-2 -70,2 -142,1 -212,1 -8,0 -13,0 -15,-1 -7,0 -26,0 -32,1 2,0 -5,-1 -9,-1 -12,0 -14,2 -28,1 6,0 8,-1 6,-1 -12,1 -28,1 -42,1 2,0 5,0 5,-1 -16,2 -28,0 -42,1l5 -1c-22,-1 -6,2 -25,1 5,0 3,0 4,-1 -18,2 -46,1 -64,2 1,0 1,-1 1,-1 -19,1 -39,0 -60,1 -8,-1 2,-2 -18,-2 1,2 -34,1 -22,3 -18,-1 -45,-1 -56,-1 7,0 -9,-2 5,-2l-10 -1c1,-1 11,0 7,-1 -7,0 -28,1 -34,1 -14,1 -26,3 -47,3 10,0 -6,-2 1,-2l-30 3c-8,0 -2,-1 -12,-1 0,1 -4,1 -8,2 -2,-1 -29,0 -33,-2 -3,0 12,0 4,-1 -13,1 -14,1 -27,1l0 0c-9,-1 -26,0 -16,1 6,0 -3,-1 6,0 -6,1 -21,1 -35,1 5,0 4,-1 6,-1 -18,1 -37,2 -56,2 -1,1 7,-1 10,-1 -26,-1 -53,2 -74,0 3,0 2,1 2,1 -13,0 -12,-1 -20,-1 -1,0 -10,0 -19,1 -4,0 -2,-1 6,-1 -12,1 -58,2 -84,1 0,0 -1,0 -3,0 -2,1 -6,1 -9,1 -2,0 -4,0 -7,0l-3 0c0,0 -1,0 -1,0l0 -1c1,-4 1,-7 2,-10l0 3c3,-10 6,-24 8,-25 1,-3 0,-1 -1,2 -1,5 -3,9 -5,18 0,4 -2,9 -1,11 3,0 7,0 9,0 4,0 5,0 -1,1 -1,-1 -4,-1 -8,-1 -1,1 0,-1 0,-1l0 -3c0,-2 0,-4 1,-5 0,-4 1,-7 1,-9 1,-2 1,-2 1,-1 3,-12 7,-24 14,-34 -2,3 -3,10 1,1 10,-15 2,-5 11,-17l5 -7c-1,-2 11,-12 5,-8 2,-1 18,-19 18,-16l-1 3c6,-6 9,-10 13,-14 1,-1 3,-2 2,-1 0,-3 15,-11 22,-17 13,-9 34,-22 42,-24 10,-6 20,-12 33,-17 -3,1 -6,3 -7,3 9,-3 10,-4 18,-8 -2,1 16,-5 26,-8 11,-5 6,-5 7,-6 11,-2 32,-13 46,-15 -4,1 -17,6 -7,4 11,-2 21,-8 38,-12l-4 -1c8,-1 25,-8 24,-6 5,-2 20,-4 18,-5 29,-6 69,-16 88,-16 4,-1 14,-3 12,-3 -7,0 -9,2 -12,2 4,-1 4,-1 5,-2 9,-1 16,-2 8,1 20,-2 20,-6 45,-9 -1,1 1,1 9,0l14 -3c17,-2 10,0 10,2 9,-2 20,-3 24,-4l11 1c-8,-1 7,-2 11,-2l-4 0c2,1 12,0 17,-1 -1,-1 -12,0 -18,0 5,-1 12,-1 18,-2 -2,1 15,-1 22,-1 8,0 9,-1 11,-1 0,0 1,0 3,0 0,3 0,7 0,11 -3,0 -9,0 -4,-1 1,0 2,0 4,0 0,-3 0,-6 0,-10 -2,0 -4,0 -7,1 3,0 5,0 7,0 0,2 0,5 0,8 -2,0 -4,0 -9,1 -4,0 -5,0 -5,1 -1,0 -3,0 -13,0 0,0 0,-1 0,-2 0,1 0,2 0,2 5,0 7,-1 11,-1 -3,0 -7,0 -10,0l0 -12 -1 0c1,-3 1,-1 1,-3 -1,-4 -1,-22 -2,-26 0,-7 1,-16 1,-23l0 2c1,-9 0,-21 0,-28l0 0c0,-4 0,-16 -1,-22 1,-12 4,-4 3,-17 0,-12 -2,-19 -3,-14 1,-22 -1,-47 1,-68 -1,-3 -1,-1 -1,-7 0,-33 -1,-69 1,-94 0,9 1,0 1,0 -1,-8 1,-9 0,-12 -1,1 -2,0 -2,9 -1,-19 -1,-48 0,-59 0,5 0,1 -1,-3 2,1 2,-13 2,-24l-1 -1 1 -7c-1,-4 -2,-5 -2,-15 1,-1 1,-1 1,-3 0,-12 -2,-27 -1,-39l2 -10c-1,-5 -1,-14 -2,-5 1,-20 1,-34 2,-40 -3,-36 -3,-87 -2,-128l0 1c1,-11 -1,-6 0,-14 0,4 1,-8 2,1 0,-16 -1,-21 -2,-31 -1,-2 1,8 0,6 -1,-2 0,-22 -1,-24 1,-4 2,-1 2,1l-1 -10c2,-11 3,27 5,15l0 -9c2,-8 2,24 2,1 0,-9 -2,-18 -3,-9 0,-5 0,-10 -1,-13 0,-3 -1,-6 -1,-8 1,-1 3,-1 7,-1 3,-1 10,-1 14,-1 2,1 -1,1 -7,1 -7,0 -15,0 -11,1 4,0 8,0 12,0l8 0c5,0 10,-1 14,-1 -10,0 -1,-1 5,-2 11,1 -7,2 9,2 2,-1 17,-2 4,-2 6,-2 16,0 25,-1 5,1 -16,3 1,3 -3,-1 21,-1 12,-3 7,0 8,1 3,2 9,1 23,-2 26,0l4 -1c3,0 7,1 12,1 8,0 27,-1 26,1 3,-1 23,-1 15,-2 -12,-1 -14,1 -20,-1 8,2 17,0 24,0l1 0c4,0 14,0 16,-1 -3,1 -1,1 2,2l4 -2c9,0 10,1 11,1 0,0 1,1 2,1 2,0 3,0 11,0l-16 1c4,0 7,1 21,0 2,0 4,0 6,0 1,5 1,10 2,14 0,5 0,5 0,6 0,1 0,2 0,2 0,1 -1,2 0,7l-1 -13c-1,-1 -2,9 -2,21 0,8 2,20 2,8 0,6 0,15 -1,10 0,14 1,-2 2,10 -1,5 -2,20 -3,30l-2 -13 0 9c-1,-11 -1,5 -2,-1 0,6 0,13 1,18 2,-17 3,19 5,14 0,23 -5,15 -2,39 1,-4 2,7 2,-8 -1,15 2,10 1,27 -1,-12 -2,13 -4,-5 1,2 1,-10 1,-12 -1,5 -2,-2 -2,13 0,9 0,21 1,19 1,0 0,-13 1,-8 0,18 -1,21 1,29 0,-12 1,-14 2,-14l0 13 -1 -3c0,21 2,6 2,27l-2 9c-1,-5 1,-29 -2,-26 0,14 1,18 1,30 0,-2 0,-6 -1,-9 0,5 -3,10 -1,28 1,10 1,3 2,3 0,21 1,28 1,41 -2,-2 0,24 -2,9 1,-7 1,-37 -1,-45 -1,8 1,-16 -1,-21 0,17 -2,16 -3,19 0,5 0,9 0,12 1,2 1,-4 3,-4 -1,19 0,37 1,47 0,7 -2,5 -2,-3 1,23 0,47 0,68 2,-14 1,24 2,15 1,-12 2,-22 3,-15 0,7 -1,-1 -1,2 1,10 -2,15 -1,24 0,-21 -2,-4 -3,-8 1,15 -1,-1 -1,14 0,15 1,33 1,49 -1,21 0,53 0,71 0,10 -2,3 -2,14 0,12 2,-9 1,9l-1 -2c1,6 -1,34 2,39l-2 -6c0,4 0,7 0,10 0,0 -1,4 -1,-2 -1,12 0,24 0,36l1 -8c1,21 0,35 0,55l-1 0 1 12c-1,-3 -2,8 -1,14l-3 -31c1,-9 2,10 3,4 1,-4 0,-23 -1,-26 0,7 0,7 1,13 -2,2 -2,-9 -3,-14 1,4 0,9 1,10 -1,-8 -1,-15 -1,-27 0,8 1,-5 1,-2 -1,-1 -2,-12 -1,-28 1,-10 -1,-28 -1,-46 1,7 2,17 3,27 1,-11 0,-12 1,-23 -1,-5 -3,-9 -3,-24l1 0c-1,-14 -2,-14 -2,-30 0,-29 0,-58 0,-80l1 -1c-2,-12 0,-40 -1,-56 1,-28 -1,-60 1,-75 -1,-49 -2,-91 -2,-142l2 9c-1,-10 1,-6 0,-15 -1,10 -1,-13 -2,-19 1,-22 0,-51 -1,-71l1 -1c-1,-10 -1,-20 -1,-31 0,-9 1,-19 1,-30l-3 0c0,0 -1,0 -3,0 -3,-1 -6,-1 -9,-1 -14,2 -21,2 -41,3 -15,0 -39,-1 -53,-1 -19,0 -38,1 -57,1 -17,0 -34,0 -51,0 0,16 0,32 0,48l-1 4c2,56 0,124 1,171l-1 -4c-1,15 0,34 1,30 0,15 1,37 0,47 -1,15 1,18 1,31 -1,30 -1,42 0,70l0 -7c-1,-3 -1,-3 -2,4 1,11 0,39 2,29 -1,30 1,71 0,101 0,-3 0,5 1,8 0,27 -2,55 0,77 -1,4 -2,-7 -2,4 1,6 1,0 2,8 0,18 0,36 0,53 -1,16 -1,31 -1,45 5,0 9,0 14,0l0 15 -1 0c-69,4 -142,12 -208,25l0 -1c-21,6 -51,10 -68,16 -6,1 -20,5 -16,3 -17,6 -49,13 -73,23 3,-1 4,-1 6,-2 -25,7 -46,17 -71,27 3,-1 7,-3 8,-4 -10,3 -22,12 -28,13 -6,3 -4,3 0,1 -27,14 -54,30 -78,50 -23,20 -44,44 -54,72 -2,5 -3,9 -4,11 0,1 -1,2 -1,3 -1,1 -1,1 -1,1 -1,0 -1,0 -1,1 -1,2 2,1 6,0 3,1 2,0 3,0 13,-1 21,3 31,1 -4,-1 6,0 6,-1 28,1 34,2 55,1l-1 1c25,-2 55,-1 77,-4 141,0 276,-1 414,-2 136,1 269,0 408,1 32,2 35,2 70,1 -1,0 -4,0 -1,1 2,-2 25,-1 28,-2 51,0 98,0 151,0 -8,0 -12,1 -3,1l11 -1 1 1c7,-1 15,-1 8,-2 30,0 61,0 91,0 0,0 0,0 0,0 0,0 0,0 0,0l-1 -5c-3,-7 -5,-14 -9,-21 -7,-13 -16,-26 -27,-37 -22,-23 -48,-42 -75,-57 -28,-16 -57,-30 -87,-41 -28,-11 -70,-24 -102,-32 -95,-25 -183,-39 -283,-43 0,0 3,-1 11,-1 9,-1 23,-1 43,0z"/>
   <path class="fil0" d="M1269 1817c0,-2 1,-14 2,-5 -1,2 -2,6 -2,5z"/>
   <path class="fil1" d="M1277 1511c0,0 0,-4 0,-5 0,3 1,7 0,10 0,-4 0,-3 0,-5z"/>
   <path class="fil1" d="M1277 1432c1,2 1,18 2,28l-2 -28z"/>
   <path class="fil1" d="M1280 1359c1,-6 1,-4 1,4 0,1 -1,-2 -1,-4z"/>
   <path class="fil1" d="M1278 1354c0,-6 1,-9 1,-12 0,0 1,14 -1,12z"/>
   <path class="fil1" d="M1281 1195c-1,-4 -1,-12 0,-16 -1,4 1,19 0,16z"/>
   <path class="fil1" d="M1279 1121c1,-2 1,-3 0,-6 1,-4 1,0 1,4l-1 2z"/>
   <polygon class="fil0" points="1372,2113 1373,2113 1373,2114 "/>
  </g>
  <path class="fil2 str0" d="M1478 1084l277 -372 42 10 256 362 -575 0zm-166 -406c55,69 79,138 72,200 -6,51 -35,98 -83,135 -48,37 -103,25 -138,-7 29,-39 37,-94 0,-142 19,-16 38,-18 51,-16 23,3 44,19 57,42 9,16 17,38 3,54 -12,13 -33,15 -46,10 -10,-4 -10,-11 -10,-16 1,-7 -5,-14 -12,-14 -7,-1 -13,4 -14,12 -2,18 8,34 26,42 24,10 57,3 75,-17 11,-12 26,-39 1,-83 -17,-31 -45,-51 -77,-56 -26,-4 -51,4 -71,22 -21,-18 -46,-26 -72,-22 -32,5 -60,25 -77,56 -25,44 -10,71 1,83 18,20 51,27 76,17 17,-8 27,-24 25,-42 0,-8 -7,-13 -14,-12 -7,0 -13,7 -12,14 0,5 0,12 -10,16 -13,5 -34,3 -46,-10 -14,-16 -6,-38 3,-54 13,-23 34,-39 57,-42 14,-2 33,0 51,16 -37,48 -29,103 0,142 -35,32 -90,44 -138,7 -48,-37 -77,-84 -83,-135 -7,-62 18,-131 72,-200 98,-122 149,-230 146,-302 8,1 16,2 24,2 6,0 11,-1 17,-1 -2,72 49,179 146,301zm-166 307c-18,-27 -25,-65 0,-101 25,36 17,74 0,101zm-312 99l-575 0 286 -374 22 -4 267 378zm1323 0l-39 0 -267 -372c32,-7 64,-23 92,-51 38,-40 53,-109 35,-165 -14,-45 -48,-75 -93,-83 -28,-4 -61,4 -84,22 -21,15 -34,37 -37,61 -3,33 12,63 39,77 25,14 55,12 75,-5 18,-15 24,-39 16,-63 -1,-1 -1,-2 -2,-4 4,5 8,11 11,20 9,28 2,66 -17,85 -45,46 -104,34 -140,9 -41,-27 -72,-81 -46,-138 15,-35 31,-55 56,-68 10,-5 21,-8 33,-12 24,-8 51,-18 75,-39 36,-33 41,-68 39,-92 -4,-44 -37,-88 -88,-119 -128,-76 -347,-59 -455,-31 -20,5 -38,13 -55,21 -27,-60 -87,-101 -156,-101 -70,0 -129,41 -156,101 -17,-9 -34,-16 -54,-21 -108,-28 -327,-45 -455,31 -51,31 -84,75 -88,119 -2,24 3,59 39,92 24,21 51,31 75,39 12,4 23,7 33,12 25,13 41,33 57,68 25,57 -6,111 -47,138 -36,25 -95,37 -140,-9 -19,-19 -26,-57 -17,-85 3,-9 7,-15 11,-20 -1,2 -1,3 -2,4 -8,24 -2,48 16,63 20,17 49,19 75,5 27,-14 42,-44 39,-77 -3,-24 -16,-46 -37,-61 -23,-18 -56,-26 -84,-22 -45,8 -79,38 -93,83 -18,56 -3,125 35,165 38,39 84,55 128,55l-10 3 -281 365 -27 0c-19,37 -30,77 -30,119 0,174 186,316 416,316 230,0 417,-142 417,-316 0,-42 -11,-82 -31,-119l-39 0 -294 -403 -14 4c2,-1 4,-3 6,-4 81,-54 112,-151 75,-236 -15,-35 -40,-78 -93,-106 -15,-7 -29,-12 -44,-17 -19,-7 -35,-12 -48,-23 -14,-13 -13,-22 -13,-25 2,-18 23,-42 50,-59 93,-55 274,-55 395,-23 22,6 41,15 59,27 6,72 54,131 120,151 6,54 -28,151 -140,292 -59,74 -85,150 -77,219 7,58 39,111 93,153 26,20 53,28 80,28 35,0 67,-14 92,-37 24,23 56,37 91,37 27,0 54,-8 81,-28 53,-42 85,-95 92,-153 8,-69 -18,-145 -77,-219 -111,-139 -145,-236 -140,-290 68,-19 120,-79 126,-152 19,-12 38,-22 61,-28 121,-32 302,-32 395,23 27,17 48,41 50,59 0,3 1,12 -13,25 -13,11 -29,16 -48,23 -15,5 -29,10 -44,17 -53,28 -78,71 -93,106 -37,85 -6,182 75,236 4,3 9,6 14,9l-304 394 -27 0c-19,37 -30,77 -30,119 0,174 186,316 416,316 230,0 417,-142 417,-316 0,-42 -11,-82 -31,-119z"/>
 </g>
</svg>
