<?xml version="1.0" encoding="UTF-8"?>
<!DOCTYPE svg PUBLIC "-//W3C//DTD SVG 1.1//EN" "http://www.w3.org/Graphics/SVG/1.1/DTD/svg11.dtd">
<!-- Creator: CorelDRAW X8 -->
<svg xmlns="http://www.w3.org/2000/svg" xml:space="preserve" width="22mm" height="22mm" version="1.1" style="shape-rendering:geometricPrecision; text-rendering:geometricPrecision; image-rendering:optimizeQuality; fill-rule:evenodd; clip-rule:evenodd"
viewBox="0 0 2200 2200"
 xmlns:xlink="http://www.w3.org/1999/xlink">
 <defs>
  <style type="text/css">
   <![CDATA[
    .str0 {stroke:#3A91CF;stroke-width:9.5;stroke-linecap:round;stroke-linejoin:round}
    .fil0 {fill:none;fill-rule:nonzero}
   ]]>
  </style>
 </defs>
 <g id="Слой_x0020_1">
  <metadata id="CorelCorpID_0Corel-Layer"/>
  <path class="fil0 str0" d="M2057 882c-31,-49 -79,-70 -137,-59 -30,5 -54,21 -70,46 -17,27 -22,63 -12,98 14,54 46,61 59,62 22,2 43,-12 51,-32 8,-19 2,-40 -14,-54 -10,-8 -25,-7 -33,3 -8,10 -7,24 3,32 1,2 -1,5 -4,5 -4,0 -12,-7 -18,-28 -6,-23 -3,-45 7,-62 9,-13 22,-22 40,-25 38,-7 68,6 89,39 34,55 30,147 3,184 -28,38 -67,54 -107,44 -48,-11 -85,-55 -94,-109 -15,-96 -32,-191 -76,-293 -45,-106 -158,-188 -288,-209 -80,-12 -156,1 -218,35 1,-35 -5,-71 -21,-109 -40,-90 -155,-188 -251,-108 -74,62 -57,149 -6,216 2,2 3,3 5,5 -62,-26 -134,-32 -208,-16 -129,29 -237,117 -276,226 -37,105 -48,201 -58,297 -5,55 -40,101 -86,115 -40,12 -80,-1 -110,-38 -30,-35 -39,-127 -8,-184 19,-34 48,-49 87,-44 17,2 31,10 41,23 11,16 15,38 10,61 -4,21 -11,29 -16,29 -3,0 -5,-2 -4,-4 9,-9 10,-24 1,-33 -9,-9 -24,-9 -33,-1 -15,15 -20,36 -11,55 10,20 32,32 53,29 13,-2 45,-11 55,-66 8,-36 1,-71 -18,-97 -17,-24 -42,-38 -73,-42 -58,-7 -105,17 -132,68 -38,69 -31,183 12,236 34,41 79,61 126,58 11,0 22,-2 34,-6 64,-20 111,-80 118,-154 9,-94 20,-187 56,-287 33,-94 128,-171 242,-196 101,-22 195,2 260,68 8,8 44,23 50,35 -60,-52 -169,-61 -259,-51 -137,16 -246,99 -293,222 -41,111 -45,216 -11,338 9,32 22,64 35,94 24,57 47,110 44,165 -3,50 -28,78 -70,81 0,0 0,0 0,0 -54,3 -122,-38 -134,-103 -5,-29 5,-60 24,-76 15,-13 34,-16 55,-9 23,8 35,21 35,39 1,14 -6,26 -11,32 -7,-6 -18,-8 -27,-3 -11,6 -15,20 -9,31 9,17 26,25 43,21 26,-6 48,-40 50,-75 1,-19 -3,-66 -66,-88 -36,-13 -72,-7 -100,17 -32,27 -47,74 -39,119 16,90 107,146 182,141 0,0 0,0 0,0 51,-3 108,-38 113,-124 4,-66 -22,-127 -47,-186 -13,-30 -25,-59 -33,-88 -32,-114 -29,-207 10,-310 40,-108 132,-189 254,-192 191,-5 268,97 267,102 -43,-37 -96,-63 -134,-70 -112,-22 -248,30 -321,123 -145,183 -42,406 78,600 79,127 193,359 74,478 -50,51 -103,47 -139,35 -67,-23 -125,-93 -133,-159 -4,-29 1,-70 46,-99 20,-13 56,-20 72,-1 9,10 23,12 33,4 10,-9 11,-23 3,-33 -32,-38 -93,-35 -133,-9 -51,33 -74,84 -67,144 10,83 81,168 164,196 24,8 48,12 71,10 42,-2 82,-21 116,-55 66,-66 76,-155 57,-248 7,10 15,20 23,30 118,23 290,39 439,-11 22,-28 44,-60 63,-96 -90,44 -191,59 -287,59 -94,0 -183,-15 -250,-30 -2,-9 -5,-17 -8,-26 137,31 381,64 562,-38 5,-12 10,-25 14,-37 -96,55 -209,73 -315,73 -107,0 -206,-18 -275,-35 -4,-9 -8,-18 -11,-27 134,33 416,81 611,-45 4,-13 7,-27 9,-41 0,0 17,-62 2,-139 -108,76 -241,100 -364,100 -138,0 -263,-29 -330,-48 -1,12 0,24 0,37 -2,-4 -5,-9 -8,-13 -26,-43 -52,-87 -74,-131 11,6 22,10 34,10 10,0 20,-3 30,-8 75,-41 33,-140 2,-213 -9,-21 -18,-41 -22,-56 -13,-52 -16,-93 16,-127 12,-13 30,-20 51,-20 23,1 44,11 58,27 15,17 20,50 12,71 -5,12 -15,19 -28,20 -7,1 -16,-2 -24,-9 -7,-6 -11,-13 -12,-19 0,-4 3,-10 8,-16 4,-4 8,-5 8,-6 0,0 1,1 1,4 2,6 8,10 14,9 7,-2 10,-8 9,-14 -5,-18 -17,-23 -27,-21 -18,3 -37,26 -36,45 1,13 8,26 20,36 13,10 28,16 42,14 21,-2 38,-14 46,-35 11,-28 5,-70 -15,-94 -18,-21 -46,-34 -76,-35 -27,0 -51,9 -68,28 -41,43 -34,97 -21,148 4,16 13,36 23,59 35,84 60,155 8,184 -14,8 -30,6 -43,-4 -15,-11 -21,-29 -17,-46 2,-10 8,-23 19,-24 12,-2 25,8 30,17 3,6 0,9 -1,10 -2,2 -3,3 -4,3l0 0c0,0 -1,-1 -2,-3 -4,-6 -11,-7 -16,-4 -6,3 -8,10 -4,15 4,9 11,14 19,15 9,1 17,-3 24,-10 9,-10 11,-24 4,-37 -8,-16 -30,-32 -52,-29 -12,1 -32,8 -40,42 0,1 0,2 0,4 -48,-122 -59,-244 23,-348 63,-79 181,-124 276,-106 42,8 99,42 134,80 0,0 0,0 0,1l-220 0c0,0 103,58 114,146 50,18 165,47 270,-5 7,-42 35,-90 100,-141l-115 0c15,-9 30,-16 43,-19 94,-24 216,14 283,89 137,153 53,365 -48,552 -94,175 -177,411 -35,538 36,32 77,48 119,48 23,0 47,-5 70,-14 82,-34 147,-122 152,-206 4,-60 -23,-110 -75,-139 -42,-24 -103,-24 -133,17 -7,10 -5,24 5,32 11,7 25,5 33,-5 15,-21 51,-16 72,-4 46,26 54,67 52,96 -4,66 -58,139 -124,166 -35,15 -88,22 -141,-25 -125,-113 -25,-351 46,-482 108,-201 197,-430 41,-604 -79,-89 -217,-132 -328,-104 -32,9 -76,32 -113,63 10,-32 23,-65 36,-98 52,-43 156,-51 215,-47 122,6 219,70 266,176 45,100 53,193 29,308 -7,30 -17,59 -28,90 -22,61 -44,123 -36,189 10,86 69,117 120,117 1,0 1,0 1,0 74,0 161,-61 173,-152 5,-45 -13,-91 -47,-117 -29,-22 -65,-26 -101,-11 -61,26 -63,73 -60,93 4,35 28,67 55,71 17,3 33,-6 41,-23 5,-11 0,-25 -11,-31 -9,-4 -20,-2 -27,5 -5,-5 -13,-17 -13,-31 0,-18 11,-32 33,-41 20,-9 40,-7 55,5 21,15 32,46 29,75 -8,65 -74,111 -127,111 0,0 0,0 0,0 -43,0 -70,-28 -75,-77 -7,-55 13,-109 33,-167 11,-31 23,-64 30,-96 26,-124 16,-228 -32,-337 -54,-120 -168,-196 -305,-203 -63,-4 -135,3 -192,26 7,-21 14,-41 19,-62 58,-45 135,-64 219,-50 114,18 214,89 253,181 41,98 58,189 73,283 12,73 62,130 128,146 11,3 22,4 34,4 46,0 90,-23 121,-65 41,-56 40,-171 -1,-237z"/>
  <path class="fil0 str0" d="M1273 418c0,-1 6,-15 9,-22 27,-56 194,-252 118,-298 -55,-32 -122,56 -138,98 -26,69 -15,154 5,219l6 3z"/>
  <path class="fil0 str0" d="M1109 228l0 -8c-8,-31 -108,-237 -160,-136 -28,54 129,115 160,144z"/>
  <path class="fil0 str0" d="M1464 1292c10,5 20,8 30,8 14,0 27,-4 38,-13 22,-17 32,-44 26,-70 -8,-34 -28,-41 -39,-42 -23,-3 -45,13 -53,29 -7,13 -5,27 4,37 7,7 15,11 24,10 8,-1 15,-6 19,-15 4,-5 2,-12 -4,-15 -5,-3 -12,-2 -15,4 -2,2 -3,3 -3,3l0 0c0,0 -2,-1 -4,-3 -1,-1 -4,-4 -1,-10 5,-9 18,-19 30,-17 12,1 17,14 19,24 5,17 -2,35 -17,46 -13,10 -29,12 -43,4 -52,-29 -27,-100 9,-184 9,-23 18,-43 22,-59 13,-51 20,-105 -21,-148 -17,-19 -41,-29 -68,-28 -29,1 -58,14 -76,35 -19,24 -26,66 -15,94 8,21 25,33 47,35 13,2 29,-4 41,-14 12,-10 19,-23 20,-36 1,-19 -18,-42 -36,-45 -10,-2 -22,3 -27,21 -1,6 3,12 9,14 6,1 12,-3 14,-9 0,-2 1,-3 1,-3 1,0 4,1 8,5 5,6 8,12 8,16 0,6 -5,13 -12,19 -7,7 -17,10 -24,9 -13,-1 -22,-8 -27,-20 -9,-21 -3,-54 11,-71 14,-16 36,-26 58,-27 21,-1 39,7 52,20 31,34 28,75 15,127 -4,15 -13,35 -22,56 -31,73 -73,172 2,213z"/>
  <path class="fil0 str0" d="M771 1327c111,33 453,112 661,-52 -22,-46 -59,-93 -121,-131 0,0 -2,-1 -4,-2 -59,40 -130,53 -197,53 -107,0 -202,-32 -221,-39 -8,5 -89,58 -118,171z"/>
  <path class="fil0 str0" d="M1243 1016c-44,19 -89,26 -130,26 -56,0 -105,-12 -137,-23 -2,36 -21,77 -67,120 56,17 253,70 382,-14 -20,-21 -47,-60 -48,-109z"/>
  <path class="fil0 str0" d="M926 1767c30,32 64,63 102,86l182 0c0,0 47,-33 100,-92 -63,17 -129,24 -192,24 -69,0 -135,-8 -192,-18z"/>
 </g>
</svg>
