<?xml version="1.0" encoding="UTF-8"?>
<!DOCTYPE svg PUBLIC "-//W3C//DTD SVG 1.1//EN" "http://www.w3.org/Graphics/SVG/1.1/DTD/svg11.dtd">
<!-- Creator: CorelDRAW X8 -->
<svg xmlns="http://www.w3.org/2000/svg" xml:space="preserve" width="22mm" height="22mm" version="1.1" style="shape-rendering:geometricPrecision; text-rendering:geometricPrecision; image-rendering:optimizeQuality; fill-rule:evenodd; clip-rule:evenodd"
viewBox="0 0 2200 2200"
 xmlns:xlink="http://www.w3.org/1999/xlink">
 <defs>
  <style type="text/css">
   <![CDATA[
    .str0 {stroke:#E63837;stroke-width:9.54;stroke-linecap:round;stroke-linejoin:round}
    .str1 {stroke:#E63837;stroke-width:4.77;stroke-linecap:round;stroke-linejoin:round}
    .fil0 {fill:none;fill-rule:nonzero}
   ]]>
  </style>
 </defs>
 <g id="Слой_x0020_1">
  <metadata id="CorelCorpID_0Corel-Layer"/>
  <path class="fil0 str0" d="M1057 622c-13,39 62,85 95,59"/>
  <path class="fil0 str0" d="M1287 767c-3,41 59,85 95,59"/>
  <path class="fil0 str1" d="M1279 707c-39,0 -83,47 -96,80 -10,21 -2,49 -33,54 -18,3 -39,-18 -55,-28"/>
  <path class="fil0 str1" d="M1036 805c-5,62 75,111 127,88"/>
  <path class="fil0 str1" d="M1036 870c3,18 18,28 39,26"/>
  <path class="fil0 str1" d="M1077 573c36,-13 98,2 98,49"/>
  <path class="fil0 str1" d="M1330 710c37,-8 68,2 60,49"/>
  <path class="fil0 str1" d="M1299 927c-74,75 -136,103 -250,72 -49,-13 -176,-103 -176,-230"/>
  <path class="fil0 str0" d="M1550 1296c8,-28 39,-111 70,-114 22,3 -18,60 -18,91 13,32 115,-104 137,-96 30,12 -47,65 -65,93 31,-20 62,-77 96,-82 29,11 -44,67 -62,87 33,-13 50,-49 84,-65 35,7 -43,71 -64,99 23,-10 47,-31 73,-31 28,22 -109,88 -143,106 -49,28 -103,44 -152,72 -116,65 -235,129 -364,160 -111,26 -191,11 -289,-49 -91,-54 -163,-121 -199,-219"/>
  <path class="fil0 str0" d="M1553 1294c-57,90 -212,87 -303,103 -137,23 -253,8 -348,-101 -68,-77 -75,-188 -99,-284"/>
  <path class="fil0 str0" d="M1000 1371c23,-26 95,-253 250,-276 134,-20 202,75 228,188 2,16 13,57 13,57"/>
  <path class="fil0 str0" d="M1442 1177c49,-157 286,-196 276,13"/>
  <path class="fil0 str0" d="M1377 1523c15,11 41,0 57,-10 -18,10 -44,23 -39,49 21,0 39,-15 57,-26 -13,11 -65,49 -26,52 21,3 59,-36 75,-47 -39,37 -26,62 21,21 33,-26 69,-44 100,-72 44,-44 148,-93 150,-166"/>
  <path class="fil0 str0" d="M530 1820c15,65 106,124 155,163 59,44 144,67 217,83 142,28 297,-39 410,-116 24,-16 55,-39 70,-62"/>
  <path class="fil0 str0" d="M1537 1565c18,93 52,191 85,281 18,55 60,83 101,119 16,13 134,98 70,106 5,16 -3,23 -21,23 8,26 -33,34 -54,29 -31,-8 -54,-39 -78,-57 -46,-39 -108,-49 -155,-88 -95,-75 -186,-201 -222,-318 -7,-20 -7,-44 -18,-62"/>
  <path class="fil0 str0" d="M1460 185c-11,-44 -86,-77 -122,-95 -75,-36 -160,-39 -240,-18 -96,23 -134,77 -207,139 -64,54 -162,54 -243,67 -72,13 -142,34 -201,78 -36,26 -72,59 -83,106 -7,33 11,67 3,100 -21,75 -134,99 -194,124 -72,37 -129,96 -144,176 -19,91 10,173 85,230 93,70 59,137 5,220 -44,64 -88,152 -41,224 20,34 64,70 106,73 33,2 72,-31 100,0 55,56 -62,139 29,191 75,44 103,-88 162,-57 21,13 16,57 37,70 23,15 80,7 106,5 72,-13 167,-80 154,-163 -2,-10 0,-18 -2,-28 -39,44 -173,69 -150,-24 18,-62 137,-74 49,-142 -21,-13 -90,-36 -85,-64 5,-29 67,-36 80,-57 39,-67 -65,-108 -88,-152 -15,-31 -15,-83 16,-104 36,-23 56,3 85,13 57,26 116,3 126,-67 6,-31 -2,-57 -23,-80 -18,-21 -59,-36 -67,-65 -21,-85 119,-33 140,-77 12,-23 -21,-57 -11,-78 13,-23 65,-13 83,-36 54,-62 -41,-139 57,-191 57,-31 108,34 165,41 75,11 160,3 225,-36 23,-13 44,-28 62,-49 -5,29 -3,52 10,80 10,29 41,42 54,65 29,51 -70,90 -46,142 31,67 -62,98 -80,129 -26,41 -104,41 -83,111 18,52 85,54 129,52 34,0 31,-8 52,18 8,8 10,28 18,39"/>
  <path class="fil0 str0" d="M1457 191c31,-39 111,-29 152,-11 88,42 117,116 101,204 -15,88 -31,160 72,189 39,10 70,8 83,51 8,39 -15,65 -23,99 -31,103 62,98 137,98 95,0 168,90 108,175 -72,101 0,117 57,197 60,82 21,124 -54,162 -60,31 -21,47 -23,104 -3,41 -11,75 -44,93 -78,44 -215,-67 -279,77"/>
  <path class="fil0 str1" d="M1746 1392c-7,129 -2,258 5,387 3,44 -7,111 21,147 18,26 52,31 70,55 23,31 13,33 -5,54 -11,10 -13,10 -29,13"/>
  <path class="fil0 str0" d="M1708 606c157,8 -31,347 170,313 34,-5 78,-34 103,0 24,31 3,83 -10,114 -10,25 -34,72 -23,103 15,41 62,28 93,49 124,90 -65,297 -178,276"/>
  <path class="fil0 str0" d="M1475 219c0,41 0,83 -10,121 -8,34 -31,68 -29,101"/>
  <path class="fil0 str0" d="M1537 513c181,52 67,256 116,372 36,91 111,49 176,93 70,47 18,106 18,166 0,54 62,67 75,113 15,55 -54,111 -106,98"/>
  <path class="fil0 str0" d="M1519 720c52,21 8,103 18,142 10,39 132,109 72,153"/>
  <path class="fil0 str0" d="M1408 906c5,34 21,72 59,78"/>
  <path class="fil0 str0" d="M1361 446c-34,18 -57,31 -98,29 -41,-3 -80,-25 -118,-39 -67,-23 -159,-21 -218,20 -28,20 -43,56 -43,89 -1,26 18,60 8,85 -21,55 -108,14 -104,82 1,22 22,43 6,60 -15,16 -46,12 -65,15 -47,8 -120,47 -96,107 8,21 40,36 34,64 -7,29 -64,37 -89,44 -73,21 -154,71 -111,158 16,32 34,47 65,64 25,14 56,27 55,59 -2,37 -52,63 -70,93 -15,26 -19,65 -16,96 4,33 17,46 47,57 22,8 47,11 49,38 2,31 -34,51 -42,80 -8,32 7,47 31,65 49,37 126,22 174,-13"/>
  <path class="fil0 str0" d="M1411 348c-30,34 -116,39 -158,31 -43,-9 -81,-36 -125,-45 -118,-23 -262,-19 -309,113 -14,39 8,76 -2,113 -11,38 -64,55 -97,65 -26,8 -69,14 -87,38 -15,19 -4,39 -3,60 4,74 -116,70 -160,105 -48,40 8,93 -33,135 -52,52 -138,26 -155,116 -8,41 -11,90 27,114 32,20 75,17 105,37 29,19 20,55 -1,78 -31,36 -70,55 -72,107 -2,47 29,64 69,75 71,20 67,57 29,113"/>
  <path class="fil0 str0" d="M1333 286c-26,36 -89,13 -123,3 -48,-14 -96,-29 -146,-31 -94,-4 -217,-1 -260,101 -13,32 -10,66 -34,92 -24,26 -55,31 -87,40 -28,8 -62,17 -78,43 -16,26 -9,58 -31,83 -56,63 -149,30 -209,82 -28,23 -23,39 -8,68 19,34 13,56 -16,83 -35,33 -82,31 -122,53 -43,24 -53,67 -51,114 2,46 26,76 41,116 12,34 -1,52 -21,80 -26,35 -32,68 17,78 57,12 40,52 2,84 -25,22 -70,62 -45,100 15,22 55,24 79,28 27,3 147,23 100,80"/>
  <path class="fil0 str0" d="M88 1022c-14,-60 -31,-115 23,-159 28,-23 55,-19 88,-26 74,-17 -10,-81 34,-127 47,-51 145,-25 186,-81 27,-37 -52,-157 28,-154 34,1 58,18 90,-8 31,-26 20,-43 26,-78 10,-57 93,-80 145,-82 61,-3 101,-10 152,-47 46,-32 81,-48 135,-62 79,-20 147,-110 232,-46 14,11 24,24 36,36 27,25 46,28 83,28"/>
  <path class="fil0 str0" d="M1519 247c40,-10 87,8 98,52 15,58 -38,175 41,202"/>
 </g>
</svg>
