<?xml version="1.0" encoding="UTF-8"?>
<!DOCTYPE svg PUBLIC "-//W3C//DTD SVG 1.1//EN" "http://www.w3.org/Graphics/SVG/1.1/DTD/svg11.dtd">
<!-- Creator: CorelDRAW X8 -->
<svg xmlns="http://www.w3.org/2000/svg" xml:space="preserve" width="22mm" height="22mm" version="1.1" style="shape-rendering:geometricPrecision; text-rendering:geometricPrecision; image-rendering:optimizeQuality; fill-rule:evenodd; clip-rule:evenodd"
viewBox="0 0 2200 2200"
 xmlns:xlink="http://www.w3.org/1999/xlink">
 <defs>
  <style type="text/css">
   <![CDATA[
    .fil1 {fill:#252422;fill-rule:nonzero}
    .fil0 {fill:#942F25;fill-rule:nonzero}
   ]]>
  </style>
 </defs>
 <g id="Слой_x0020_1">
  <metadata id="CorelCorpID_0Corel-Layer"/>
  <path class="fil0" d="M716 980c-6,47 17,96 62,114 50,19 97,-10 117,-57 37,-90 -125,-70 -168,-65 -10,1 -10,16 0,15 26,-3 52,-5 78,-5 23,0 63,-1 78,21 9,14 -5,33 -12,44 -14,23 -34,37 -61,38 -51,2 -85,-55 -79,-101 1,-9 -14,-13 -15,-4l0 0z"/>
  <path class="fil0" d="M800 1105c0,52 0,103 0,154 0,10 15,10 15,0 0,-51 0,-102 0,-154 0,-9 -15,-9 -15,0l0 0z"/>
  <path class="fil0" d="M808 1254c-27,-2 -43,28 -56,46 -11,17 -22,32 -40,41 -11,6 -22,9 -34,12 -8,1 -16,2 -24,0 -12,-31 -5,-46 22,-45 9,0 9,-15 0,-15 -21,0 -49,12 -52,36 -2,22 12,40 34,40 26,1 54,-8 75,-23 24,-16 44,-79 75,-77 10,1 9,-14 0,-15l0 0z"/>
  <path class="fil0" d="M809 1269c33,7 45,47 64,71 16,20 42,37 70,31 43,-9 45,-69 -3,-69 -10,0 -10,15 0,15 20,0 28,18 14,33 -19,20 -53,-1 -67,-17 -24,-26 -35,-71 -74,-79 -10,-2 -14,13 -4,15l0 0z"/>
  <path class="fil0" d="M819 498c-626,-95 -542,1009 7,997 267,-6 422,-378 415,-601 -8,-243 -203,-391 -430,-397 -10,0 -10,16 0,16 210,5 362,119 408,327 51,234 -112,557 -343,631 -247,79 -430,-220 -468,-418 -24,-123 -13,-258 38,-373 63,-140 228,-189 369,-167 9,1 13,-14 4,-15l0 0z"/>
  <path class="fil0" d="M499 600c-31,-65 -168,-104 -214,-36 -29,41 -17,99 2,141 23,52 79,54 127,54 10,0 10,-15 0,-15 -45,0 -90,0 -114,-46 -20,-37 -27,-97 2,-130 45,-50 158,-14 184,40 4,9 17,1 13,-8l0 0z"/>
  <path class="fil0" d="M469 633c-11,-21 -30,-37 -55,-35 -22,2 -43,15 -56,32 -12,15 -20,37 -9,55 15,25 55,25 80,23 10,-1 10,-16 0,-15 -19,1 -53,3 -66,-15 -9,-12 -1,-28 7,-38 10,-13 26,-24 43,-27 20,-2 34,11 43,28 4,9 17,1 13,-8l0 0z"/>
  <path class="fil0" d="M1123 632c27,-43 51,-82 102,-99 44,-15 97,-10 125,30 40,55 -17,121 -61,149 -7,5 -75,44 -78,34 -2,-9 -17,-5 -15,4 9,35 72,-7 86,-15 53,-31 101,-80 94,-146 -6,-59 -68,-81 -118,-78 -74,4 -112,56 -148,113 -5,9 8,17 13,8l0 0z"/>
  <path class="fil0" d="M1157 663c10,-36 75,-99 106,-50 26,40 -47,79 -76,89 -10,3 -6,18 4,15 44,-16 117,-62 83,-117 -38,-59 -120,16 -132,59 -2,10 13,14 15,4l0 0z"/>
  <path class="fil0" d="M503 359c-28,-110 -169,-83 -242,-38 -35,21 -71,63 -70,106 0,26 6,47 17,70 1,2 -105,39 -122,49 -60,33 -67,106 -51,165 7,24 27,56 48,70 48,34 -3,46 -34,80 -48,51 -38,124 -7,180 17,31 55,49 85,64 15,7 -28,80 -31,97 -15,60 34,110 80,139 39,24 73,16 66,72 -5,33 3,74 25,99 27,32 50,49 89,60 29,7 86,-17 102,20 33,79 91,110 176,107 21,0 47,-8 63,-24 20,-20 -1,-28 16,2 27,48 130,43 172,33 46,-10 103,-44 89,-97 13,49 100,59 139,50 59,-13 112,-71 115,-133 1,-5 114,-3 132,-8 30,-8 50,-35 67,-58 24,-34 27,-70 23,-111 -4,-38 -21,-44 25,-52 60,-10 115,-71 115,-134 0,-25 -1,-54 -19,-75 -23,-26 -57,-26 -28,-35 51,-15 77,-50 94,-99 18,-54 7,-117 -20,-167 -12,-22 -32,-38 -53,-51 -23,-14 18,-139 14,-172 -7,-55 -80,-77 -125,-83 -27,-3 -30,-73 -39,-90 -14,-29 -31,-61 -58,-80 -29,-21 -52,-30 -87,-32 -58,-3 -59,-12 -81,-64 -24,-55 -125,-76 -173,-49 -31,18 -52,50 -80,18 -19,-22 -46,-35 -72,-45 -48,-19 -92,2 -118,42 -25,37 -35,8 -72,-10 -28,-14 -59,-7 -88,0 -24,7 -58,35 -70,56 -20,37 -7,90 -26,120 -6,8 8,16 13,8 10,-16 8,-12 9,-33 4,-117 125,-191 222,-86 4,4 12,3 13,-3 25,-134 153,-81 202,-7 3,4 8,5 12,1 58,-54 151,-95 214,-4 16,22 23,57 38,81 2,3 6,5 9,3 124,-44 192,75 200,179 1,5 4,7 8,8 61,8 127,17 137,98 5,42 -24,99 -30,141 -1,3 0,8 3,9 125,53 127,304 -35,298 -8,-1 -11,11 -4,14 52,20 75,65 69,136 -17,78 -86,94 -149,99 -6,0 -10,6 -7,11 44,81 13,249 -136,201 -33,-10 -22,-8 -55,-8 -4,0 -8,4 -8,8 1,43 -15,81 -47,113 -41,48 -163,46 -184,-28 -2,-7 -13,-8 -15,0 -10,66 -40,100 -109,108 -51,6 -133,4 -146,-66 -1,-8 -14,-8 -15,0 -12,67 -91,55 -134,46 -60,-11 -85,-68 -100,-118 -1,-3 -4,-6 -8,-6 -25,2 -50,4 -75,4 -118,4 -131,-117 -115,-198 0,-4 -1,-9 -6,-10 -125,-21 -197,-126 -98,-236 4,-5 2,-11 -4,-13 -61,-26 -102,-48 -123,-118 -27,-85 46,-136 101,-177 6,-4 5,-12 -2,-14 -124,-51 -116,-205 0,-253 29,-12 63,-15 93,-20 5,-1 7,-8 5,-12 -109,-177 218,-290 256,-144 2,10 17,6 15,-4l0 0z"/>
  <path class="fil0" d="M1137 1644c64,93 202,105 305,118 134,16 295,11 404,-82 234,-201 3,-555 -261,-564 -10,-1 -10,15 0,15 279,9 487,397 206,567 -97,59 -218,61 -327,51 -100,-10 -252,-22 -314,-113 -5,-8 -18,-1 -13,8l0 0z"/>
  <path class="fil0" d="M1524 1758c-20,89 -31,181 -41,271 -4,46 18,97 72,93 66,-4 89,-57 115,-110 51,-104 108,-197 136,-310 2,-10 -13,-14 -15,-4 -32,128 -98,242 -160,357 -28,52 -124,84 -133,-7 -2,-25 5,-51 8,-75 10,-71 17,-141 32,-211 3,-10 -12,-14 -14,-4l0 0z"/>
  <path class="fil0" d="M1556 2110c16,-56 36,-111 49,-168 2,-10 -13,-14 -15,-4 -13,57 -32,112 -48,168 -3,10 12,14 14,4l0 0z"/>
  <path class="fil0" d="M920 1694c0,38 -45,517 97,408 57,-44 86,-129 112,-193 29,-72 55,-147 73,-222 3,-10 -12,-14 -15,-4 -26,111 -67,224 -120,325 -14,27 -31,53 -51,75 -53,57 -80,-31 -84,-76 -7,-103 3,-210 3,-313 0,-10 -15,-10 -15,0l0 0z"/>
  <path class="fil0" d="M977 2110c13,-42 26,-84 27,-128 1,-10 -15,-10 -15,0 -1,43 -14,83 -27,124 -3,10 12,14 15,4l0 0z"/>
  <path class="fil0" d="M1289 1736c1,73 -16,148 -19,221 -2,36 -9,135 40,150 134,39 150,-280 168,-351 -4,-1 -9,-3 -14,-4 -3,14 -6,28 -9,42 -2,10 12,14 14,4 3,-14 6,-28 9,-42 3,-10 -12,-14 -14,-4 -12,44 -67,414 -158,334 -40,-35 -21,-143 -17,-188 5,-54 16,-108 16,-162 -1,-10 -16,-10 -16,0l0 0z"/>
  <path class="fil0" d="M1328 2110c10,-32 18,-63 24,-96 2,-10 -13,-14 -14,-4 -7,32 -15,64 -25,96 -2,10 13,14 15,4l0 0z"/>
  <path class="fil0" d="M605 1699c5,26 99,475 185,384 41,-43 43,-116 47,-171 5,-68 8,-144 -7,-211 -2,-10 -17,-6 -15,4 22,95 14,212 -7,306 -5,22 -13,49 -33,64 -40,30 -81,-102 -86,-117 -28,-86 -52,-175 -69,-263 -2,-10 -17,-6 -15,4l0 0z"/>
  <path class="fil0" d="M776 2079c-11,-49 -17,-98 -18,-148 0,-10 -15,-10 -15,0 0,52 7,102 18,152 2,10 17,6 15,-4l0 0z"/>
  <path class="fil0" d="M1866 1264c15,-70 150,-61 204,-87 47,-23 86,-80 93,-132 10,-77 -9,-140 -52,-205 -44,-66 -143,-66 -199,-115 -8,-7 -19,4 -11,11 34,30 72,43 114,59 138,49 177,230 86,338 -62,75 -226,22 -250,127 -2,9 12,13 15,4l0 0z"/>
  <path class="fil0" d="M1894 720c-170,3 -96,-176 -121,-283 -5,3 -9,5 -13,8 36,41 90,56 138,78 41,19 74,51 65,102 -5,33 -39,63 -54,92 -5,9 8,17 13,8 31,-60 88,-109 37,-177 -46,-60 -139,-57 -188,-114 -6,-6 -15,0 -13,7 28,118 -48,298 136,294 10,0 10,-16 0,-15l0 0z"/>
  <path class="fil1" d="M664 798c0,19 -16,34 -35,34 -19,0 -35,-15 -35,-34 0,-19 16,-35 35,-35 19,0 35,16 35,35z"/>
  <path class="fil1" d="M991 798c0,19 -16,34 -35,34 -19,0 -34,-15 -34,-34 0,-19 15,-35 34,-35 19,0 35,16 35,35z"/>
 </g>
</svg>
