<?xml version="1.0" encoding="UTF-8"?>
<!DOCTYPE svg PUBLIC "-//W3C//DTD SVG 1.1//EN" "http://www.w3.org/Graphics/SVG/1.1/DTD/svg11.dtd">
<!-- Creator: CorelDRAW X8 -->
<svg xmlns="http://www.w3.org/2000/svg" xml:space="preserve" width="22mm" height="22mm" version="1.1" style="shape-rendering:geometricPrecision; text-rendering:geometricPrecision; image-rendering:optimizeQuality; fill-rule:evenodd; clip-rule:evenodd"
viewBox="0 0 2200 2200"
 xmlns:xlink="http://www.w3.org/1999/xlink">
 <defs>
  <style type="text/css">
   <![CDATA[
    .str0 {stroke:#E31E24;stroke-width:5}
    .fil0 {fill:none;fill-rule:nonzero}
   ]]>
  </style>
 </defs>
 <g id="Слой_x0020_1">
  <metadata id="CorelCorpID_0Corel-Layer"/>
  <path class="fil0 str0" d="M1288 997c37,-16 268,-233 299,-139 9,27 -31,66 -42,86 -14,28 -20,61 -22,91 -6,76 33,119 99,152 28,13 56,27 86,36 -43,-84 -59,-166 -19,-255 42,15 84,103 100,143 10,25 16,52 21,77 5,26 -3,55 4,76 92,-70 142,-263 104,-370 -26,-71 -77,-122 -150,-124 -13,0 -35,6 -48,0 -19,-10 -14,-21 -27,-36 -23,-25 -49,-36 -86,-34 -98,5 -173,59 -247,111 30,-80 -88,-36 -119,-21 14,-26 39,-69 -2,-87 -30,-13 -73,24 -100,34 5,-78 -95,-44 -127,-13 -1,-64 -84,-11 -102,14 -42,-41 -96,35 -114,71 -51,101 48,21 79,22 -21,65 97,-6 115,-16 -9,9 -11,22 -16,35 24,35 77,5 105,-14 -55,60 52,47 83,26 2,0 2,-1 0,0 -22,31 -4,73 34,77 33,4 59,-32 93,-27 -15,27 -36,56 2,78"/>
  <path class="fil0 str0" d="M1077 1662c18,36 52,351 137,300 24,-14 19,-71 24,-93 7,-30 24,-59 42,-83 45,-62 102,-70 174,-51 30,8 60,16 89,28 -87,36 -152,88 -180,181 42,17 130,-23 169,-44 23,-12 46,-28 66,-44 21,-16 33,-43 52,-55 24,113 -63,292 -162,349 -65,37 -136,42 -194,-4 -10,-8 -23,-27 -36,-31 -21,-5 -25,8 -44,10 -34,4 -61,-5 -88,-30 -71,-67 -93,-157 -115,-244 -30,79 -91,-31 -105,-62 -6,29 -14,77 -57,64 -32,-9 -41,-65 -54,-91 -48,63 -101,-28 -105,-72 -43,47 -71,-46 -68,-77 -59,4 -51,-89 -42,-128 27,-110 51,16 75,35 26,-63 70,68 77,87 -1,-13 6,-25 11,-38 41,-11 62,47 70,80 -2,-82 70,-2 81,33 0,2 0,2 -1,0 3,-37 45,-57 76,-36 28,19 24,63 54,81 5,-30 8,-66 51,-58"/>
  <path class="fil0 str0" d="M745 898c54,-115 -186,-209 -265,-177 -104,43 -211,236 -233,336 -32,150 65,211 184,263 22,10 96,31 113,12 14,-16 24,-79 24,-100 0,-72 25,-134 63,-194 28,-43 77,-110 112,-136"/>
  <path class="fil0 str0" d="M497 690c30,2 -38,-119 -47,-137 -12,-24 -9,-8 -6,-32 1,-12 14,-31 17,-46 7,-30 6,-54 -17,-77 42,-22 130,-70 98,-131 61,15 133,-38 164,-86 56,33 109,-5 158,-36 21,46 96,37 125,4 26,36 58,51 103,41 8,33 41,55 74,49 -12,-44 29,-84 68,-97 -26,-31 -82,-68 -123,-51 -17,-49 -75,-97 -125,-53 -31,-37 -102,-47 -138,-5 -75,-36 -137,-32 -201,23 -57,-48 -173,-14 -180,62 -81,-6 -198,76 -153,171 -49,43 -92,63 -119,128 -13,33 -21,66 -11,101 14,52 15,40 -19,79 -97,112 -86,232 -34,364 21,51 48,93 91,125 39,-84 42,-178 94,-257 29,-43 121,-136 180,-135"/>
  <path class="fil0 str0" d="M1311 115c-36,-10 -77,26 -90,56 48,28 89,85 97,140 1,2 2,2 1,0 -37,-38 -69,-89 -120,-107 -19,43 -30,87 -45,130 106,1 183,162 197,249 31,-31 27,-141 14,-181 24,37 33,105 21,148 104,-100 52,-373 -73,-439"/>
  <path class="fil0 str0" d="M1260 1419c6,-16 23,-24 39,-18 16,6 24,24 18,40 -6,16 -24,23 -40,17 -15,-6 -23,-23 -17,-39zm53 -185c6,-16 24,-24 40,-18 15,6 23,24 17,40 -6,16 -24,24 -39,18 -16,-6 -24,-24 -18,-40zm-177 331c63,-1 135,-2 194,-26 72,-29 92,-91 113,-159 6,-20 11,-44 12,-65l-2 3c-10,-140 -85,-279 -220,-337 -118,-51 -260,-112 -386,-88 -135,25 -212,144 -245,265 -15,55 -36,135 -17,194 20,60 99,93 151,116 123,54 268,98 400,97z"/>
 </g>
</svg>
