<?xml version="1.0" encoding="UTF-8"?>
<!DOCTYPE svg PUBLIC "-//W3C//DTD SVG 1.1//EN" "http://www.w3.org/Graphics/SVG/1.1/DTD/svg11.dtd">
<!-- Creator: CorelDRAW X8 -->
<svg xmlns="http://www.w3.org/2000/svg" xml:space="preserve" width="22mm" height="22mm" version="1.1" style="shape-rendering:geometricPrecision; text-rendering:geometricPrecision; image-rendering:optimizeQuality; fill-rule:evenodd; clip-rule:evenodd"
viewBox="0 0 2200 2200"
 xmlns:xlink="http://www.w3.org/1999/xlink">
 <defs>
  <style type="text/css">
   <![CDATA[
    .str0 {stroke:#942F25;stroke-width:4.6}
    .fil0 {fill:none;fill-rule:nonzero}
   ]]>
  </style>
 </defs>
 <g id="Слой_x0020_1">
  <metadata id="CorelCorpID_0Corel-Layer"/>
  <path class="fil0 str0" d="M587 2041c15,-31 24,-65 25,-100 3,-44 -8,-87 -19,-130 -13,-48 -26,-96 -37,-145 -21,-96 -31,-195 -25,-294 6,-96 26,-192 59,-283 3,-9 7,-18 10,-27l813 374 33 101 128 59 -987 445zm145 -1203c61,-75 133,-139 215,-191 43,-28 89,-53 135,-76 45,-23 92,-45 136,-71 59,-36 110,-89 139,-152l300 1037 -116 -53 -102 39 -810 -372c28,-57 63,-111 103,-161zm1158 903l-50 -150 144 -55 -308 -142 -309 -1070c3,-8 5,-15 7,-22 24,-93 -7,-198 -88,-253 -73,-49 -174,-49 -243,7 -65,53 -80,153 -29,220 28,38 77,57 123,49 44,-9 82,-43 86,-89 0,-11 0,-23 -1,-34 -1,-9 -3,-18 -6,-26 -6,-18 -17,-34 -32,-46 -31,-27 -77,-33 -114,-14 35,-32 89,-38 133,-21 48,19 80,65 85,116 4,50 -18,98 -50,134 -27,31 -60,52 -97,70 -45,23 -92,42 -138,64 -45,21 -89,44 -131,70 -84,52 -161,116 -225,191 -54,62 -100,132 -137,205l-113 -52c8,-8 14,-16 19,-26 20,-45 1,-97 -44,-118 -91,-42 -238,58 -238,58 0,0 20,177 111,218 45,21 97,1 118,-43 4,-8 6,-17 7,-25l112 51c-1,2 -1,3 -2,5 -4,11 -9,23 -13,35 -8,24 -16,48 -23,72 -13,48 -24,97 -30,146 -14,99 -13,199 2,298 14,99 45,194 74,290 7,22 14,45 17,69 2,23 -1,46 -8,68 -16,45 -50,81 -93,99 -43,18 -90,17 -130,-9 -35,-23 -59,-65 -59,-107 17,65 92,97 151,66 6,-3 13,-7 19,-12 6,-5 13,-10 19,-16 13,-13 22,-29 26,-47 8,-35 -5,-73 -29,-99 -63,-68 -171,-43 -220,28 -50,74 -29,173 32,234 67,65 166,74 249,35 45,-21 83,-56 109,-98l1021 -460 296 136z"/>
 </g>
</svg>
